<svg xmlns="http://www.w3.org/2000/svg" viewBox="0 0 116.22 116.22"><defs><style>.cls-1{fill:#088a84;}.cls-2,.cls-3{fill:none;}.cls-2{stroke:#fff;stroke-miterlimit:10;stroke-width:1.5px;}</style></defs><g id="Logo"><path class="cls-1" d="M114.8,58.1A56.69,56.69,0,1,1,58.11,1.41,56.7,56.7,0,0,1,114.8,58.1Z"/><path class="cls-2" d="M74,48.85l.41-.28Z"/><path class="cls-2" d="M61.29,64.74c-6.48,12.91-7.85,26.63-4.88,23.1,5.92-7,11.66-17,16.16-20.2a25.57,25.57,0,0,1-3.17,1.83C66.27,71,63.52,68.77,61.29,64.74Z"/><path class="cls-2" d="M85.73,51.47C82.66,57.59,78.44,63.53,73,67.36a4.26,4.26,0,0,1,2.23-.78c4.77,0,8.63,21.78,14.59,21.78C94.23,88.36,92,62.72,85.73,51.47Z"/><path class="cls-2" d="M73,67.36l-.41.28Z"/><path class="cls-2" d="M90.61,28.36c-5.92,7-11.66,17-16.16,20.21a25,25,0,0,1,3.17-1.83c3.13-1.49,5.88.69,8.11,4.73C92.21,38.56,93.58,24.83,90.61,28.36Z"/><path class="cls-2" d="M57.22,27.85c-4.42,0-2.17,25.63,4.07,36.89,3.07-6.12,7.3-12.06,12.75-15.89a4.3,4.3,0,0,1-2.23.77C67,49.62,63.18,27.85,57.22,27.85Z"/><path class="cls-2" d="M85.73,51.47c-2.23-4-5-6.22-8.11-4.73a25,25,0,0,0-3.17,1.83l-.41.28c-5.45,3.83-9.68,9.77-12.75,15.89,2.23,4,5,6.22,8.11,4.73a25.57,25.57,0,0,0,3.17-1.83l.41-.28C78.44,63.53,82.66,57.59,85.73,51.47Z"/><path class="cls-2" d="M21.31,45c.54,5,4.92,7,10.09,8.06,8.14-9.79,18.21-19,18.21-23.28,0-7.08-28.35,7.09-28.35,14.18,0,.35,0,.69,0,1Z"/><path class="cls-2" d="M21.26,72.25c0,7.09,28.34,21.26,28.34,14.17,0-3.27-6-9.56-12.54-16.78C29.47,73.72,21.26,76.07,21.26,72.25Z"/><path class="cls-2" d="M49.6,58.08c0-4.23-10.06-3.41-18.2-5.07-1.4,1.68-2.74,3.38-4,5.07a145.09,145.09,0,0,0,9.62,11.56C43.56,66.13,49.6,61.35,49.6,58.08Z"/><path class="cls-2" d="M21.31,45c.38,4,2.82,8.55,6.13,13.13,1.22-1.69,2.56-3.39,4-5.07C26.23,52,21.85,49.91,21.31,45Z"/><path class="cls-2" d="M21.26,72.25c0,3.82,8.21,1.47,15.8-2.61a145.09,145.09,0,0,1-9.62-11.56C23.84,63.06,21.26,68,21.26,72.25Z"/></g><g id="Grid"><rect class="cls-3" y="-0.01" width="116.22" height="116.22"/></g></svg>