<svg xmlns="http://www.w3.org/2000/svg" viewBox="0 0 330.24 63.78"><defs><style>.cls-1{fill:#fff;}.cls-2,.cls-3{fill:none;}.cls-2{stroke:#fff;stroke-miterlimit:10;stroke-width:1.5px;}</style></defs><g id="Logo"><path class="cls-1" d="M98.64,35H94c.52,3.57,3.78,5.83,7.93,5.83,2.94,0,6.4-.58,8.66-2.68h.26v2.21c0,3.62-2.46,6.4-10.24,6.4A14,14,0,0,1,86.72,32.51c0-9.45,5.78-15.39,13.86-15.39,5.88,0,11.34,4.2,11.34,11C111.92,33.29,108,35,98.64,35ZM100,23A6.06,6.06,0,0,0,94,29L94,30h3.15c6.66,0,8.19-.74,8.19-2.73C105.31,24.42,103.21,23,100,23Z"/><path class="cls-1" d="M137.75,46.52c-3,0-5-1.68-7.51-5.4l-3.09-4.68a32.79,32.79,0,0,0-3.73,5,12.6,12.6,0,0,0-1.58,4.78h-3.2a2.68,2.68,0,0,1-2.89-2.52c0-3.36,2-6.14,5.46-9.92l2.31-2.47-3-4.31c-3.15-4.57-4.94-7.09-5-9.24h4.2c1.37,0,3.1.89,6.25,5.36l2.89,4.09c4.51-5.09,5.25-6.56,5.72-9.4h2.68a2.73,2.73,0,0,1,2.89,3c0,1.26-1.05,3.46-3.31,6.4-1.16,1.53-2.63,3.26-4.31,5.15l3.1,4.51c3.05,4.47,4.31,5.62,6.77,6.15C142.37,45,140.85,46.52,137.75,46.52Z"/><path class="cls-1" d="M160.69,46.73a8.27,8.27,0,0,1-7.14-4.2V55h-2.2a4.82,4.82,0,0,1-4.94-4.88V33c0-9.4,4.2-15.91,14.18-15.91,7.51,0,12.86,6.83,12.86,14C173.45,40.17,168.94,46.73,160.69,46.73Zm-1.2-23.36c-3.89,0-6,3.36-6,8.24,0,5.67,2.78,8.88,7,8.88,3.41,0,5.78-3.05,5.78-7.56C166.21,26.26,164,23.37,159.49,23.37Z"/><path class="cls-1" d="M189.57,35H185c.52,3.57,3.78,5.83,7.93,5.83,2.94,0,6.4-.58,8.66-2.68h.26v2.21c0,3.62-2.47,6.4-10.24,6.4a14,14,0,0,1-13.91-14.22c0-9.45,5.77-15.39,13.86-15.39,5.88,0,11.34,4.2,11.34,11C202.85,33.29,198.91,35,189.57,35Zm1.31-12A6.05,6.05,0,0,0,185,29l0,.95H188c6.67,0,8.2-.74,8.2-2.73C196.24,24.42,194.14,23,190.88,23Z"/><path class="cls-1" d="M224.32,24.63a10.14,10.14,0,0,0-4.09-.84c-3.15,0-4.89,1.73-4.89,6V46.11H213.4c-3.15,0-5.14-1.58-5.14-4.52v-13c0-5.67,3-11.08,10.45-11.08,4.35,0,5.88,2.47,5.88,4.62v2.52Z"/><path class="cls-1" d="M232.88,15.76a4.15,4.15,0,0,1-4.1-4.15,4.11,4.11,0,0,1,4.1-4.1,4.15,4.15,0,0,1,4.15,4.1A4.19,4.19,0,0,1,232.88,15.76Zm5,30.61c-5.46,0-8.46-3.1-8.46-8.82V18.38h2c3.15,0,5,1.68,5,5.25V36.86c0,2.84,1.21,3.73,4.3,3.73h1.32v1.52C242.07,45.16,240.86,46.37,237.87,46.37Z"/><path class="cls-1" d="M256.61,35H252c.52,3.57,3.78,5.83,7.93,5.83,2.94,0,6.4-.58,8.66-2.68h.26v2.21c0,3.62-2.46,6.4-10.24,6.4a14,14,0,0,1-13.91-14.22c0-9.45,5.78-15.39,13.86-15.39,5.88,0,11.34,4.2,11.34,11C269.89,33.29,266,35,256.61,35Zm1.31-12A6.06,6.06,0,0,0,252,29l-.05.95h3.15c6.66,0,8.19-.74,8.19-2.73C263.28,24.42,261.18,23,257.92,23Z"/><path class="cls-1" d="M298.35,46.11c-3.15,0-5.15-2-5.15-4.63V30.25c0-4.78-2.1-6.88-5.72-6.88-3.05,0-5.15,2.31-5.15,6.35V46.11h-2.1a4.59,4.59,0,0,1-4.93-4.63V29.25c0-6,3.94-12.13,12.76-12.13,6.67,0,12.18,4.46,12.18,12.5V46.11Z"/><path class="cls-1" d="M324.44,46.11H310.63c-3.25,0-4.83-1.53-4.83-3.73s1.63-4.89,4.31-7.77l7.14-7.77a18.18,18.18,0,0,0,2.41-3.21H305.75V21.48c0-2.1,1.52-3.73,4.67-3.73h12.86c3.31,0,4.41,2,4.41,3.63,0,2.2-1.15,4.83-3.62,7.5L317,36.55a20.18,20.18,0,0,0-2.67,3.52h13.75V42.8A3.7,3.7,0,0,1,324.44,46.11Z"/><path class="cls-2" d="M54.2,22.63a4.81,4.81,0,0,0,.41-.27Z"/><path class="cls-2" d="M41.45,38.53C35,51.44,33.6,65.16,36.57,61.63c5.92-7,11.66-17,16.16-20.21a23.89,23.89,0,0,1-3.17,1.83C46.43,44.75,43.68,42.56,41.45,38.53Z"/><path class="cls-2" d="M65.89,25.25c-3.07,6.13-7.3,12.07-12.75,15.9a4.24,4.24,0,0,1,2.23-.78C60.14,40.37,64,62.14,70,62.14,74.38,62.14,72.13,36.51,65.89,25.25Z"/><path class="cls-2" d="M53.14,41.15c-.14.08-.27.18-.41.27Z"/><path class="cls-2" d="M70.77,2.15c-5.92,7-11.66,17-16.16,20.21a23.89,23.89,0,0,1,3.17-1.83c3.13-1.5,5.88.69,8.11,4.72C72.37,12.34,73.74-1.38,70.77,2.15Z"/><path class="cls-2" d="M37.38,1.64c-4.42,0-2.17,25.63,4.07,36.89,3.07-6.13,7.29-12.07,12.75-15.9a4.24,4.24,0,0,1-2.23.78C47.2,23.41,43.34,1.64,37.38,1.64Z"/><path class="cls-2" d="M65.89,25.25c-2.23-4-5-6.22-8.11-4.72a23.89,23.89,0,0,0-3.17,1.83,4.81,4.81,0,0,1-.41.27c-5.46,3.83-9.68,9.77-12.75,15.9,2.23,4,5,6.22,8.11,4.72a23.89,23.89,0,0,0,3.17-1.83c.14-.09.27-.19.41-.27C58.59,37.32,62.82,31.38,65.89,25.25Z"/><path class="cls-2" d="M1.47,18.74c.53,5,4.92,7,10.09,8.06C19.69,17,29.77,7.74,29.77,3.52c0-7.09-28.35,7.09-28.35,14.17a8.56,8.56,0,0,0,.05,1Z"/><path class="cls-2" d="M1.42,46c0,7.09,28.34,21.26,28.34,14.17,0-3.27-6-9.56-12.55-16.79C9.63,47.51,1.42,49.85,1.42,46Z"/><path class="cls-2" d="M29.76,31.87c0-4.23-10.07-3.42-18.2-5.07-1.4,1.68-2.74,3.38-4,5.06a143.18,143.18,0,0,0,9.61,11.56C23.72,39.92,29.76,35.14,29.76,31.87Z"/><path class="cls-2" d="M1.47,18.74c.37,4,2.82,8.55,6.13,13.12,1.22-1.68,2.56-3.38,4-5.06C6.39,25.74,2,23.7,1.47,18.74Z"/><path class="cls-2" d="M1.42,46c0,3.81,8.21,1.47,15.79-2.62A143.18,143.18,0,0,1,7.6,31.86C4,36.85,1.42,41.77,1.42,46Z"/></g><g id="Grid"><rect class="cls-3" x="72.29" y="17.01" width="256.54" height="29.76"/><rect class="cls-3" x="1.42" y="1.42" width="70.87" height="60.95"/><rect class="cls-3" width="330.24" height="63.78"/><rect class="cls-3" x="1.42" y="1.42" width="327.4" height="60.95"/><rect class="cls-3" x="72.29" y="1.42" width="14.17" height="60.95"/></g></svg>