<svg xmlns="http://www.w3.org/2000/svg" viewBox="0 0 372.76 116.22"><defs><style>.cls-1{fill:#088a84;}.cls-2{fill:#3e3e3e;}.cls-3,.cls-4{fill:none;}.cls-3{stroke:#fff;stroke-miterlimit:10;stroke-width:1.5px;}</style></defs><g id="Logo"><path class="cls-1" d="M114.8,58.11A56.69,56.69,0,1,1,58.11,1.42,56.69,56.69,0,0,1,114.8,58.11Z"/><path class="cls-2" d="M141.16,61.19h-4.62c.52,3.57,3.78,5.83,7.93,5.83,2.94,0,6.4-.58,8.66-2.68h.26v2.21c0,3.62-2.47,6.4-10.24,6.4a14,14,0,0,1-13.91-14.22c0-9.46,5.78-15.39,13.86-15.39,5.88,0,11.34,4.2,11.34,11C154.44,59.51,150.5,61.19,141.16,61.19Zm1.31-12a6.05,6.05,0,0,0-5.93,6l0,1h3.15c6.66,0,8.19-.74,8.19-2.74C147.83,50.64,145.73,49.22,142.47,49.22Z"/><path class="cls-2" d="M180.27,72.74c-3,0-5-1.68-7.51-5.4l-3.09-4.68a32.79,32.79,0,0,0-3.73,5,12.6,12.6,0,0,0-1.58,4.78h-3.2a2.68,2.68,0,0,1-2.89-2.52c0-3.36,1.94-6.14,5.46-9.92L166,57.52l-3-4.31c-3.15-4.57-4.93-7.09-5-9.24h4.2c1.37,0,3.1.89,6.25,5.36l2.89,4.09c4.51-5.09,5.25-6.56,5.72-9.4h2.68a2.72,2.72,0,0,1,2.88,3c0,1.26-1,3.46-3.3,6.4-1.16,1.53-2.63,3.26-4.31,5.15l3.1,4.51c3,4.47,4.3,5.62,6.77,6.15C184.89,71.22,183.37,72.74,180.27,72.74Z"/><path class="cls-2" d="M203.21,73a8.27,8.27,0,0,1-7.14-4.2v12.5h-2.2a4.82,4.82,0,0,1-4.94-4.88V59.25c0-9.4,4.2-15.91,14.18-15.91,7.51,0,12.86,6.83,12.86,14C216,66.39,211.46,73,203.21,73ZM202,49.59c-3.89,0-6,3.36-6,8.24,0,5.67,2.78,8.88,7,8.88,3.41,0,5.78-3,5.78-7.56C208.73,52.48,206.52,49.59,202,49.59Z"/><path class="cls-2" d="M232.09,61.19h-4.62C228,64.76,231.25,67,235.4,67c2.94,0,6.4-.58,8.66-2.68h.26v2.21c0,3.62-2.47,6.4-10.24,6.4a14,14,0,0,1-13.91-14.22c0-9.46,5.77-15.39,13.86-15.39,5.88,0,11.34,4.2,11.34,11C245.37,59.51,241.43,61.19,232.09,61.19Zm1.31-12a6,6,0,0,0-5.93,6l-.06,1h3.15c6.67,0,8.2-.74,8.2-2.74C238.76,50.64,236.66,49.22,233.4,49.22Z"/><path class="cls-2" d="M266.84,50.85a10.18,10.18,0,0,0-4.09-.84c-3.15,0-4.89,1.73-4.89,6V72.32h-1.94c-3.15,0-5.14-1.57-5.14-4.51v-13c0-5.67,3-11.08,10.44-11.08,4.36,0,5.89,2.47,5.89,4.62v2.52Z"/><path class="cls-2" d="M275.4,42a4.15,4.15,0,0,1-4.1-4.15,4.11,4.11,0,0,1,4.1-4.1,4.15,4.15,0,0,1,4.15,4.1A4.19,4.19,0,0,1,275.4,42Zm5,30.61c-5.46,0-8.46-3.1-8.46-8.82V44.6h2c3.15,0,5,1.68,5,5.25V63.08c0,2.84,1.21,3.73,4.3,3.73h1.32v1.52C284.59,71.38,283.38,72.59,280.39,72.59Z"/><path class="cls-2" d="M299.13,61.19h-4.62c.52,3.57,3.78,5.83,7.93,5.83,2.94,0,6.4-.58,8.66-2.68h.26v2.21c0,3.62-2.46,6.4-10.24,6.4a14,14,0,0,1-13.91-14.22c0-9.46,5.78-15.39,13.86-15.39,5.88,0,11.34,4.2,11.34,11C312.41,59.51,308.47,61.19,299.13,61.19Zm1.31-12a6.05,6.05,0,0,0-5.93,6l-.05,1h3.15c6.66,0,8.19-.74,8.19-2.74C305.8,50.64,303.7,49.22,300.44,49.22Z"/><path class="cls-2" d="M340.87,72.32c-3.15,0-5.15-2-5.15-4.62V56.47c0-4.78-2.1-6.88-5.72-6.88-3.05,0-5.15,2.31-5.15,6.35V72.32h-2.1a4.58,4.58,0,0,1-4.93-4.62V55.47c0-6,3.94-12.13,12.76-12.13,6.67,0,12.18,4.46,12.18,12.5V72.32Z"/><path class="cls-2" d="M367,72.32H353.15c-3.25,0-4.83-1.52-4.83-3.72s1.63-4.89,4.3-7.77l7.15-7.78a17.77,17.77,0,0,0,2.41-3.2H348.27V47.7c0-2.1,1.52-3.73,4.67-3.73H365.8c3.31,0,4.41,2,4.41,3.62,0,2.21-1.15,4.83-3.62,7.51l-7.09,7.67a20.18,20.18,0,0,0-2.67,3.52h13.75V69A3.69,3.69,0,0,1,367,72.32Z"/><path class="cls-3" d="M74,48.85a4.81,4.81,0,0,0,.41-.27Z"/><path class="cls-3" d="M61.29,64.75c-6.48,12.91-7.85,26.63-4.88,23.1,5.92-7,11.66-17,16.16-20.21a23.27,23.27,0,0,1-3.17,1.83C66.27,71,63.52,68.78,61.29,64.75Z"/><path class="cls-3" d="M85.73,51.47C82.66,57.6,78.44,63.54,73,67.37a4.26,4.26,0,0,1,2.23-.78c4.77,0,8.63,21.77,14.59,21.77C94.23,88.36,92,62.73,85.73,51.47Z"/><path class="cls-3" d="M73,67.37l-.41.27Z"/><path class="cls-3" d="M90.61,28.37c-5.92,7-11.66,17-16.16,20.21a23.89,23.89,0,0,1,3.17-1.83c3.13-1.5,5.88.69,8.11,4.72C92.21,38.56,93.58,24.84,90.61,28.37Z"/><path class="cls-3" d="M57.22,27.86c-4.42,0-2.17,25.63,4.07,36.89,3.07-6.13,7.3-12.07,12.75-15.9a4.24,4.24,0,0,1-2.23.78C67,49.63,63.18,27.86,57.22,27.86Z"/><path class="cls-3" d="M85.73,51.47c-2.23-4-5-6.22-8.11-4.72a23.89,23.89,0,0,0-3.17,1.83,4.81,4.81,0,0,1-.41.27c-5.45,3.83-9.68,9.77-12.75,15.9,2.23,4,5,6.22,8.11,4.72a23.27,23.27,0,0,0,3.17-1.83l.41-.27C78.44,63.54,82.66,57.6,85.73,51.47Z"/><path class="cls-3" d="M21.31,45c.54,5,4.92,7,10.09,8.06C39.54,43.22,49.61,34,49.61,29.74c0-7.09-28.35,7.08-28.35,14.17,0,.36,0,.7,0,1Z"/><path class="cls-3" d="M21.26,72.26c0,7.09,28.34,21.26,28.34,14.17,0-3.27-6-9.56-12.54-16.79C29.47,73.73,21.26,76.07,21.26,72.26Z"/><path class="cls-3" d="M49.6,58.09c0-4.23-10.06-3.42-18.2-5.07-1.4,1.68-2.74,3.37-4,5.06a143.33,143.33,0,0,0,9.62,11.56C43.56,66.14,49.6,61.36,49.6,58.09Z"/><path class="cls-3" d="M21.31,45c.38,4,2.82,8.55,6.13,13.12,1.22-1.69,2.56-3.38,4-5.06C26.23,52,21.85,49.92,21.31,45Z"/><path class="cls-3" d="M21.26,72.26c0,3.81,8.21,1.47,15.8-2.62a143.33,143.33,0,0,1-9.62-11.56C23.84,63.06,21.26,68,21.26,72.26Z"/></g><g id="Grid"><rect class="cls-4" x="114.8" y="43.23" width="256.54" height="29.76"/><rect class="cls-4" x="21.26" y="27.64" width="70.87" height="60.95"/><rect class="cls-4" x="1.42" y="27.64" width="369.92" height="60.95"/><rect class="cls-4" width="372.76" height="116.22"/><rect class="cls-4" x="114.8" y="27.64" width="14.17" height="60.95"/><rect class="cls-4" x="1.42" y="27.64" width="19.84" height="60.95"/></g></svg>