<?xml version="1.0" standalone="no"?>
<!DOCTYPE svg PUBLIC "-//W3C//DTD SVG 20010904//EN"
 "http://www.w3.org/TR/2001/REC-SVG-20010904/DTD/svg10.dtd">
<svg version="1.0" xmlns="http://www.w3.org/2000/svg"
 width="512.000000pt" height="512.000000pt" viewBox="0 0 512.000000 512.000000"
 preserveAspectRatio="xMidYMid meet">
<metadata>
Created by potrace 1.16, written by Peter Selinger 2001-2019
</metadata>
<g transform="translate(0.000000,512.000000) scale(0.100000,-0.100000)"
fill="#000000" stroke="none">
<path d="M2247 4945 c-99 -14 -220 -37 -289 -56 l-38 -10 0 -160 0 -161 58 4
c31 3 114 16 184 31 614 131 1303 -59 1782 -490 l38 -35 -73 -74 c-40 -40 -71
-75 -68 -77 10 -9 630 -159 636 -154 5 6 -145 626 -154 636 -2 3 -26 -17 -53
-44 -56 -55 -44 -59 -157 41 -329 288 -783 488 -1246 549 -145 19 -481 19
-620 0z"/>
<path d="M1025 4403 c-165 -42 -302 -78 -304 -80 -3 -2 17 -26 44 -53 55 -56
59 -44 -41 -157 -287 -328 -488 -784 -549 -1246 -35 -273 -12 -657 56 -909
l10 -38 161 0 160 0 -5 63 c-3 34 -17 116 -32 182 -22 101 -27 153 -32 327 -8
295 21 491 109 746 85 250 244 521 406 694 l46 49 73 -72 c40 -40 74 -71 76
-68 5 5 157 615 157 629 0 16 -19 12 -335 -67z"/>
<path d="M1120 2880 l0 -560 560 0 560 0 0 -800 0 -800 -80 0 -80 0 0 720 0
720 -560 0 -560 0 0 -720 0 -720 -440 0 -440 0 0 -320 0 -320 2480 0 2480 0 0
320 0 320 -760 0 -760 0 0 520 0 520 163 0 c178 0 235 10 317 58 136 79 240
242 240 378 l0 44 -204 0 c-172 0 -214 -3 -265 -19 -77 -24 -146 -68 -205
-131 l-46 -49 0 259 0 260 163 0 c178 0 235 10 317 58 136 79 240 242 240 378
l0 44 -204 0 c-172 0 -214 -3 -265 -19 -77 -24 -146 -68 -205 -131 l-46 -49 0
64 c0 194 -145 382 -339 439 -42 12 -102 16 -258 16 l-203 0 0 -44 c0 -101 60
-226 148 -308 105 -98 191 -128 369 -128 l123 0 0 -260 0 -259 -46 49 c-59 63
-128 107 -205 131 -51 16 -93 19 -265 19 l-204 0 0 -43 c0 -174 149 -361 331
-418 49 -15 92 -19 225 -19 l164 0 0 -680 0 -680 -400 0 -400 0 0 1360 0 1360
-720 0 -720 0 0 -560z m320 320 l0 -80 -80 0 -80 0 0 80 0 80 80 0 80 0 0 -80z
m320 0 l0 -80 -80 0 -80 0 0 80 0 80 80 0 80 0 0 -80z m320 0 l0 -80 -80 0
-80 0 0 80 0 80 80 0 80 0 0 -80z m320 0 l0 -80 -80 0 -80 0 0 80 0 80 80 0
80 0 0 -80z m-960 -320 l0 -80 -80 0 -80 0 0 80 0 80 80 0 80 0 0 -80z m320 0
l0 -80 -80 0 -80 0 0 80 0 80 80 0 80 0 0 -80z m320 0 l0 -80 -80 0 -80 0 0
80 0 80 80 0 80 0 0 -80z m320 0 l0 -80 -80 0 -80 0 0 80 0 80 80 0 80 0 0
-80z m-960 -320 l0 -80 -80 0 -80 0 0 80 0 80 80 0 80 0 0 -80z m320 0 l0 -80
-80 0 -80 0 0 80 0 80 80 0 80 0 0 -80z m320 0 l0 -80 -80 0 -80 0 0 80 0 80
80 0 80 0 0 -80z m320 0 l0 -80 -80 0 -80 0 0 80 0 80 80 0 80 0 0 -80z
m-1120 -640 l0 -80 -80 0 -80 0 0 80 0 80 80 0 80 0 0 -80z m320 0 l0 -80 -80
0 -80 0 0 80 0 80 80 0 80 0 0 -80z m320 0 l0 -80 -80 0 -80 0 0 80 0 80 80 0
80 0 0 -80z m-640 -320 l0 -80 -80 0 -80 0 0 80 0 80 80 0 80 0 0 -80z m320 0
l0 -80 -80 0 -80 0 0 80 0 80 80 0 80 0 0 -80z m320 0 l0 -80 -80 0 -80 0 0
80 0 80 80 0 80 0 0 -80z m-640 -320 l0 -80 -80 0 -80 0 0 80 0 80 80 0 80 0
0 -80z m320 0 l0 -80 -80 0 -80 0 0 80 0 80 80 0 80 0 0 -80z m320 0 l0 -80
-80 0 -80 0 0 80 0 80 80 0 80 0 0 -80z"/>
<path d="M4563 3378 c3 -35 17 -117 32 -183 22 -101 27 -153 32 -327 8 -295
-21 -491 -109 -746 -85 -250 -244 -521 -406 -694 l-46 -49 -73 72 c-40 40 -74
71 -76 68 -9 -10 -159 -630 -154 -636 6 -5 626 145 636 154 3 2 -17 26 -44 53
-55 56 -59 44 41 157 287 328 488 784 549 1246 35 273 12 657 -56 910 l-10 37
-161 0 -160 0 5 -62z"/>
</g>
</svg>
